<svg xmlns="http://www.w3.org/2000/svg" width="55.086" height="57.047" viewBox="0 0 55.086 57.047">
  <g id="Group_8634" data-name="Group 8634" transform="translate(-8)">
    <path id="Path_1229" data-name="Path 1229" d="M112,149.9h17.942l-.231-1.845a.985.985,0,0,1,1.1-1.1l7.869.984a.984.984,0,0,1,.573,1.672l-.288.287h2.543V144H112Zm13.77-3.934h1.967v1.967H125.77Zm-3.934,0H123.8v1.967h-1.967Zm-3.934,0h1.967v1.967H117.9Zm-3.934,0h1.967v1.967h-1.967Z" transform="translate(-91.214 -126.296)"/>
    <path id="Path_1230" data-name="Path 1230" d="M413.95,66.951A2.951,2.951,0,0,0,411,64h-2.944V93.507h5.9Z" transform="translate(-350.87 -56.131)"/>
    <path id="Path_1231" data-name="Path 1231" d="M277.288,186.337l.545-.545-4.618-.577.577,4.623.545-.545a.984.984,0,0,1,1.391,0l3.239,3.234,1.56-1.56-3.239-3.239A.984.984,0,0,1,277.288,186.337Z" transform="translate(-232.608 -162.444)"/>
    <path id="Path_1232" data-name="Path 1232" d="M13.907,64H10.951A2.951,2.951,0,0,0,8,66.951V93.507h5.907Z" transform="translate(0 -56.131)"/>
    <path id="Path_1233" data-name="Path 1233" d="M63.085,320H8v1.967a2.951,2.951,0,0,0,2.951,2.951H60.136a2.951,2.951,0,0,0,2.951-2.951Z" transform="translate(0 -280.657)"/>
    <path id="Path_1234" data-name="Path 1234" d="M111.4,2.951A2.951,2.951,0,0,0,108.447,0H75.006a2.951,2.951,0,0,0-2.951,2.951V37.375H111.4Zm-28.53-.984h1.967V3.934H82.867Zm-3.934,0H80.9V3.934H78.933ZM75,1.967h1.967V3.934H75ZM108.44,24.589a.984.984,0,0,1-.984.984H103.93l2.255,2.255a.984.984,0,0,1,0,1.391l-2.951,2.951a.984.984,0,0,1-1.391,0L98.6,28.931,97.333,30.2a.984.984,0,0,1-1.672-.573l-.506-4.056H75.982A.984.984,0,0,1,75,24.589V16.721a.984.984,0,0,1,.984-.984h31.474a.984.984,0,0,1,.984.984Zm0-16.721H75V5.9H108.44Z" transform="translate(-56.18)"/>
    <path id="Path_1235" data-name="Path 1235" d="M159.053,376h-8.458l-3.22,8.852H144v1.967h22.622v-1.967H162.27Z" transform="translate(-119.279 -329.772)"/>
  </g>
</svg>
