<svg xmlns="http://www.w3.org/2000/svg" width="57.06" height="57.047" viewBox="0 0 57.06 57.047">
  <g id="Group_8635" data-name="Group 8635" transform="translate(0 -0.103)">
    <path id="Path_1246" data-name="Path 1246" d="M226.215,200.056A10.187,10.187,0,1,0,236.4,210.243,10.187,10.187,0,0,0,226.215,200.056ZM220.1,210.243h-2.037a8.16,8.16,0,0,1,3.492-6.688l1.165,1.671A6.118,6.118,0,0,0,220.1,210.243Zm6.112-6.112a6.127,6.127,0,0,0-1.747.254l-.581-1.954a8.159,8.159,0,0,1,2.327-.337Z" transform="translate(-188.513 -174.486)"/>
    <path id="Path_1247" data-name="Path 1247" d="M6.122,64.088H3.056A3.057,3.057,0,0,0,.01,67.144L0,94.649H6.122Z" transform="translate(0 -55.835)"/>
    <path id="Path_1248" data-name="Path 1248" d="M34.417,330.9a16.352,16.352,0,0,1-12.188-10.873H0l.007,2.038a3.056,3.056,0,0,0,3.056,3.056H23.437a1.019,1.019,0,0,1,.958,1.367l-2.834,7.8H17.318v2.037H39.729V334.29H35.56Z" transform="translate(0 -279.177)"/>
    <path id="Path_1249" data-name="Path 1249" d="M120.05,184.06h2.037v6.112H120.05Z" transform="translate(-104.76 -160.527)"/>
    <path id="Path_1250" data-name="Path 1250" d="M77.306,35.757a16.276,16.276,0,0,1,27.5-11.806V3.159A3.056,3.056,0,0,0,101.755.1H67.119a3.056,3.056,0,0,0-3.056,3.056V38.813H77.6A16.285,16.285,0,0,1,77.306,35.757Zm6.112-15.28H81.381V16.4H79.343v8.15H77.306V15.383a1.019,1.019,0,0,1,1.019-1.019H82.4a1.018,1.018,0,0,1,1.019,1.019Zm8.15-3.056H89.53V15.383H87.493v3.056H85.456V14.365a1.019,1.019,0,0,1,1.019-1.019h4.075a1.018,1.018,0,0,1,1.019,1.019Zm8.15,0H97.68V12.327H95.643v5.093H93.605V11.309a1.019,1.019,0,0,1,1.019-1.019H98.7a1.018,1.018,0,0,1,1.019,1.019ZM75.269,2.14h2.037V4.178H75.269Zm-4.075,0h2.037V4.178H71.194Zm-4.075,0h2.037V4.178H67.119Zm0,4.075h34.636V8.253H67.119Zm0,4.075h4.075v2.037H67.119Zm4.075,25.467H67.119V33.72h4.075Zm4.075,0H73.231V33.72h2.037Zm0-6.112v2.037h-8.15V29.645h2.037V22.514A1.019,1.019,0,0,1,70.175,21.5H74.25a1.018,1.018,0,0,1,1.019,1.019Z" transform="translate(-55.904)"/>
    <path id="Path_1251" data-name="Path 1251" d="M369.1,368.017a16.409,16.409,0,0,1-2.863,2.406l7.233,7.232a1.913,1.913,0,0,0,2.635,0,1.855,1.855,0,0,0,.546-1.317,1.879,1.879,0,0,0-.547-1.317Z" transform="translate(-319.589 -321.054)"/>
    <path id="Path_1252" data-name="Path 1252" d="M402.973,64.088h-3.056l-.01,18.031a16.044,16.044,0,0,1,2.764,12.53h3.362v-27.5a3.057,3.057,0,0,0-3.059-3.056Z" transform="translate(-348.972 -55.835)"/>
    <path id="Path_1253" data-name="Path 1253" d="M398.978,324.571l.55.55h2.624a3.07,3.07,0,0,0,3.066-3.056v-2.038h-3.881A16.418,16.418,0,0,1,398.978,324.571Z" transform="translate(-348.162 -279.177)"/>
    <path id="Path_1254" data-name="Path 1254" d="M198.3,168.064a14.262,14.262,0,1,0,14.262,14.262A14.262,14.262,0,0,0,198.3,168.064Zm0,26.486a12.224,12.224,0,1,1,12.224-12.224A12.224,12.224,0,0,1,198.3,194.55Z" transform="translate(-160.595 -146.568)"/>
  </g>
</svg>
