<svg xmlns="http://www.w3.org/2000/svg" width="56.628" height="57.047" viewBox="0 0 56.628 57.047">
  <g id="Layer_7" data-name="Layer 7" transform="translate(-24 -24)">
    <path id="Path_1236" data-name="Path 1236" d="M56,312v2.547L58.547,312Z" transform="translate(-28.066 -252.592)"/>
    <path id="Path_1237" data-name="Path 1237" d="M69.827,325.827V323.28l-2.547,2.547Z" transform="translate(-37.959 -262.485)"/>
    <path id="Path_1238" data-name="Path 1238" d="M56,232v2.547L58.547,232Z" transform="translate(-28.066 -182.427)"/>
    <path id="Path_1239" data-name="Path 1239" d="M69.827,245.827V243.28l-2.547,2.547Z" transform="translate(-37.959 -192.32)"/>
    <path id="Path_1240" data-name="Path 1240" d="M97.441,56H64V69.77H97.441ZM71.869,59.934H69.9V67.8H67.934V59.934H65.967V57.967h5.9Zm7.869,0H75.8V61.9h3.934v1.967H75.8v1.967h3.934V67.8H74.819a.984.984,0,0,1-.984-.984V58.951a.984.984,0,0,1,.984-.984h4.918Zm7.869,0H84.655a.984.984,0,1,0,0,1.967,2.951,2.951,0,1,1,0,5.9H81.7V65.836h2.951a.984.984,0,1,0,0-1.967,2.951,2.951,0,0,1,0-5.9h2.951Zm7.869,0H93.507V67.8H91.54V59.934H89.573V57.967h5.9Z" transform="translate(-35.082 -28.066)"/>
    <path id="Path_1241" data-name="Path 1241" d="M56,392h3.934v3.934H56Z" transform="translate(-28.066 -322.756)"/>
    <path id="Path_1242" data-name="Path 1242" d="M283.226,213.629,301.5,195.354l2.545,2.545-18.275,18.275Z" transform="translate(-227.355 -150.287)"/>
    <path id="Path_1243" data-name="Path 1243" d="M266.495,359.879,264.616,358l-1.416,3.295Z" transform="translate(-209.791 -292.936)"/>
    <path id="Path_1244" data-name="Path 1244" d="M443.2,165.884l2.545-2.545,2.545,2.545-2.545,2.545Z" transform="translate(-367.657 -122.208)"/>
    <path id="Path_1245" data-name="Path 1245" d="M58.808,68.182l-6.885,2.951a.983.983,0,0,1-1.288-1.288L53,64.326H35.8V62.359H54.087l1.967-1.967H35.8V58.425H58.022l3.934-3.934H35.8V52.523h28.12l3.354-3.354V24H24V81.047H67.277V59.812l-8.154,8.164A1.094,1.094,0,0,1,58.808,68.182Zm-10.219.079v1.967H35.8V68.26Zm15.737-17.7H35.8V48.589H64.326ZM26.951,26.951a.984.984,0,0,1,.984-.984H63.343a.984.984,0,0,1,.984.984V42.688a.984.984,0,0,1-.984.984H27.934a.984.984,0,0,1-.984-.984Zm-.984,21.638a.984.984,0,0,1,.984-.984h5.5L35.1,44.94l1.4,1.4-2.665,2.656v5.5a.984.984,0,0,1-.984.984h-5.9a.984.984,0,0,1-.984-.984Zm7.869,25.573a.984.984,0,0,1-.984.984h-5.9a.984.984,0,0,1-.984-.984v-5.9a.984.984,0,0,1,.984-.984h5.9a.984.984,0,0,1,.984.984Zm0-15.334v5.5a.984.984,0,0,1-.984.984h-5.9a.984.984,0,0,1-.984-.984v-5.9a.984.984,0,0,1,.984-.984h5.5l1.672-1.682,1.4,1.4ZM64.326,74.162H35.8V72.195H64.326Z"/>
  </g>
</svg>
