<svg id="search" xmlns="http://www.w3.org/2000/svg" width="20.112" height="20.111" viewBox="0 0 20.112 20.111">
  <path id="Path_1257" data-name="Path 1257" d="M23.205,23.2a1.257,1.257,0,0,1,1.779,0l4.839,4.839a1.257,1.257,0,0,1-1.777,1.779l-4.839-4.839a1.257,1.257,0,0,1,0-1.779Z" transform="translate(-10.08 -10.078)" fill-rule="evenodd"/>
  <path id="Path_1258" data-name="Path 1258" d="M8.17,15.083A6.913,6.913,0,1,0,1.257,8.17,6.913,6.913,0,0,0,8.17,15.083ZM16.34,8.17A8.17,8.17,0,1,1,8.17,0,8.17,8.17,0,0,1,16.34,8.17Z" fill-rule="evenodd"/>
</svg>
