<svg id="_05-security" data-name="05-security" xmlns="http://www.w3.org/2000/svg" width="54.267" height="59.201" viewBox="0 0 54.267 59.201">
  <g id="Glyph" transform="translate(0 0)">
    <path id="Path_1165" data-name="Path 1165" d="M57.544,8.122l-7.4-7.4A2.467,2.467,0,0,0,47.222.3,15.672,15.672,0,0,1,32.406.354a2.467,2.467,0,0,0-2.546,0A15.748,15.748,0,0,1,15.044.3a2.467,2.467,0,0,0-2.922.423l-7.4,7.4A2.467,2.467,0,0,0,4,9.866V37a2.469,2.469,0,0,0,.925,1.926L29.592,58.66a2.467,2.467,0,0,0,3.083,0L57.342,38.926A2.47,2.47,0,0,0,58.267,37V9.866a2.467,2.467,0,0,0-.723-1.745ZM50.867,33.443a2.467,2.467,0,0,1-.925,1.926L32.675,49.183a2.467,2.467,0,0,1-3.083,0L12.325,35.369a2.467,2.467,0,0,1-.925-1.926V12.932a2.467,2.467,0,0,1,.723-1.745L13.914,9.4a2.471,2.471,0,0,1,2.41-.631,23.223,23.223,0,0,0,13.988-.555,2.467,2.467,0,0,1,1.642,0,23.222,23.222,0,0,0,13.988.555,2.47,2.47,0,0,1,2.41.631l1.791,1.788a2.467,2.467,0,0,1,.723,1.745Z" transform="translate(-4 0)"/>
    <path id="Path_1166" data-name="Path 1166" d="M52.745,17.689a24.816,24.816,0,0,1-6.705.915,26.291,26.291,0,0,1-8.773-1.519A26.3,26.3,0,0,1,28.495,18.6a24.8,24.8,0,0,1-6.7-.915L20,19.481V39.992L37.267,53.806,54.533,39.992V19.481ZM36.544,40.36a2.467,2.467,0,0,1-3.488,0l-4.933-4.933,3.488-3.489L34.8,35.127,42.923,27l3.488,3.489Z" transform="translate(-10.133 -6.549)"/>
  </g>
</svg>
