<svg xmlns="http://www.w3.org/2000/svg" width="76.784" height="100.444" viewBox="0 0 76.784 100.444">
  <g id="Group_80" data-name="Group 80" transform="translate(0 0)">
    <g id="Group_78" data-name="Group 78">
      <path id="Path_83" data-name="Path 83" d="M2553.073-780.2a8.9,8.9,0,0,1,2.531-6.922,1.323,1.323,0,0,0,.017-2.147c-5.333-5.525-2.135-17.54,6-19.259.954-.2,1.325-.636,1.287-1.729-.3-8.344,8.471-14.769,16.276-11.945a1.6,1.6,0,0,0,2.1-.656c4.207-5.146,10.372-6.469,16.461-3.583a8.291,8.291,0,0,1,3.406,3.288,1.909,1.909,0,0,0,2.737.9,11.459,11.459,0,0,1,12.6,3.485c2.277,2.612,3.7,5.335,3.113,8.9-.21,1.275.951,1.134,1.678,1.37,7.006,2.275,10.813,10.993,7,17.113-1.553,2.491-1.359,3.8.059,6.153,3.641,6.036-.092,14.968-6.885,16.993-1.525.455-1.877.977-1.776,2.564.475,7.518-8.666,14.186-15.64,11.417-1.445-.574-2.089-.408-2.994.9a11.968,11.968,0,0,1-19.648-.266c-.658-1-1.156-1.33-2.311-.789-7.332,3.436-16.889-4.115-16.01-11.135.18-1.451-.337-2.2-1.884-2.656C2556.125-769.685,2553.089-774.269,2553.073-780.2Zm38.6,16.348c13.816-.005,24.288-10.595,24.387-24.46a24.319,24.319,0,0,0-22.965-24.534,24.274,24.274,0,0,0-25.834,24.759A24.05,24.05,0,0,0,2591.676-763.852Z" transform="translate(-2552.998 827.941)" fill="#a7e42b"/>
      <path id="Path_84" data-name="Path 84" d="M2596.2-452.583c-.382,1.522-.852,3.56-1.409,5.573a92.913,92.913,0,0,1-3.394,10.324c-.757,1.866-1.39,2.022-2.858.68a35.984,35.984,0,0,1-6.323-7.185c-1.258-1.986-2.691-2.376-4.876-1.8a34.728,34.728,0,0,1-8.219,1.122c-.746.012-1.64.141-2.043-.685-.435-.886.388-1.372.851-1.946a96.285,96.285,0,0,0,8.636-12.533c.874-1.522,1.678-2.069,3.458-1.069a12.442,12.442,0,0,0,8.857,1.341,2.56,2.56,0,0,1,2.659.7,16.837,16.837,0,0,0,3.705,3.016C2595.968-454.612,2596.283-453.952,2596.2-452.583Z" transform="translate(-2564.129 535.566)" fill="#a7e42b"/>
      <path id="Path_85" data-name="Path 85" d="M2799.057-443.462c-2.932-.453-5.93-.568-8.809-1.39a2.4,2.4,0,0,0-3.018,1.079,46.115,46.115,0,0,1-7,7.983c-1.5,1.4-2.2,1.3-2.9-.5a112.476,112.476,0,0,1-4.755-15.8,2.278,2.278,0,0,1,1.287-2.911,9.421,9.421,0,0,0,3.386-2.714,2.144,2.144,0,0,1,2.421-.756,12.43,12.43,0,0,0,8.869-1.2c1.784-.95,2.818-.553,3.831,1.247a71.394,71.394,0,0,0,8.141,11.849c.558.644,1.473,1.342,1,2.345S2799.932-443.619,2799.057-443.462Z" transform="translate(-2727.971 535.217)" fill="#a7e42b"/>
      <path id="Path_86" data-name="Path 86" d="M2657.736-697.521a21.908,21.908,0,0,1-21.882-21.956c-.008-12.3,10.538-22.263,22.166-21.967a21.876,21.876,0,0,1,21.517,21.928A21.827,21.827,0,0,1,2657.736-697.521Zm11.4-27.657a2.9,2.9,0,0,0-2-2.667c-1.4-.662-2.447-.01-3.231,1.085-2.229,3.11-4.436,6.235-6.574,9.405-.958,1.421-1.738,1.334-2.681.041-1.31-1.8-2.657-3.569-4.007-5.338-1.1-1.442-2.357-1.531-3.764-.418-1.641,1.3-1.823,2.392-.455,4.308q2.847,3.988,5.848,7.863a4.521,4.521,0,0,0,7.442-.1c2.919-3.982,5.729-8.043,8.579-12.076A3.53,3.53,0,0,0,2669.134-725.178Z" transform="translate(-2619.053 759.099)" fill="#a7e42b"/>
    </g>
  </g>
</svg>
