<svg xmlns="http://www.w3.org/2000/svg" width="72.61" height="462.85" viewBox="0 0 72.61 462.85">
  <g id="Group_778" data-name="Group 778" transform="translate(-201.465 -473.398)">
    <path id="Path_848" data-name="Path 848" d="M273.566,640.516l-.2-25.576-71.4-71.4,0,25.371Z" transform="translate(0 191.365)" fill="none" stroke="#dfdfdf" stroke-width="1"/>
    <path id="Path_849" data-name="Path 849" d="M273.566,626.728l-.2-25.576-71.4-71.4,0,25.372Z" transform="translate(0 153.092)" fill="none" stroke="#dfdfdf" stroke-width="1"/>
    <path id="Path_850" data-name="Path 850" d="M273.566,612.941l-.2-25.576-71.4-71.4,0,25.372Z" transform="translate(0 114.819)" fill="none" stroke="#dfdfdf" stroke-width="1"/>
    <path id="Path_851" data-name="Path 851" d="M273.566,667.834l-.2-25.576-71.4-71.4,0,25.372Z" transform="translate(0 267.197)" fill="none" stroke="#dfdfdf" stroke-width="1"/>
    <path id="Path_852" data-name="Path 852" d="M273.566,654.047l-.2-25.576-71.4-71.4,0,25.371Z" transform="translate(0 228.924)" fill="none" stroke="#dfdfdf" stroke-width="1"/>
    <path id="Path_853" data-name="Path 853" d="M273.566,599.153l-.2-25.576-71.4-71.4,0,25.372Z" transform="translate(0 76.546)" fill="none" stroke="#dfdfdf" stroke-width="1"/>
    <path id="Path_854" data-name="Path 854" d="M273.566,585.365l-.2-25.576-71.4-71.4,0,25.372Z" transform="translate(0 38.273)" fill="none" stroke="#dfdfdf" stroke-width="1"/>
    <path id="Path_855" data-name="Path 855" d="M273.566,571.577l-.2-25.576-71.4-71.4,0,25.372Z" transform="translate(0 0)" fill="none" stroke="#dfdfdf" stroke-width="1"/>
  </g>
</svg>
