<svg xmlns="http://www.w3.org/2000/svg" width="68.823" height="46.418" viewBox="0 0 68.823 46.418">
  <g id="delivery-truck" transform="translate(0)">
    <g id="Group_8518" data-name="Group 8518" transform="translate(0 0)">
      <g id="Group_8517" data-name="Group 8517">
        <path id="Path_1176" data-name="Path 1176" d="M0,238.994a1.2,1.2,0,0,0,1.2,1.259H3.116a8.486,8.486,0,0,1,7.622-4.989,8.486,8.486,0,0,1,7.622,4.989h24.9v-10.19H0Z" transform="translate(0 -202.836)"/>
        <path id="Path_1177" data-name="Path 1177" d="M36.12,277.32a5.648,5.648,0,1,0,5.648,5.648A5.648,5.648,0,0,0,36.12,277.32Z" transform="translate(-25.382 -242.198)"/>
        <path id="Path_1178" data-name="Path 1178" d="M297.15,193.428l-5.379-2.364H275v16.7h3.255a8.317,8.317,0,0,1,15.244,0h3.186a1.2,1.2,0,0,0,1.2-1.259V194.643A1.3,1.3,0,0,0,297.15,193.428Z" transform="translate(-229.063 -170.351)"/>
        <path id="Path_1179" data-name="Path 1179" d="M286.241,123.124a3.837,3.837,0,0,0-3.463-2.062H275v9.02h14.853Z" transform="translate(-229.063 -112.041)"/>
        <path id="Path_1180" data-name="Path 1180" d="M39.428,67.064H3.816A3.851,3.851,0,0,0,0,70.98V91.62H43.264V70.98c0-.006,0-.012,0-.018A3.867,3.867,0,0,0,39.428,67.064Z" transform="translate(0 -67.064)"/>
        <path id="Path_1181" data-name="Path 1181" d="M311.953,277.32a5.648,5.648,0,1,0,5.648,5.648h0A5.648,5.648,0,0,0,311.953,277.32Z" transform="translate(-255.139 -242.198)"/>
      </g>
    </g>
  </g>
</svg>
