<svg id="protein-powder" xmlns="http://www.w3.org/2000/svg" width="46.223" height="57.047" viewBox="0 0 46.223 57.047">
  <g id="Group_8510" data-name="Group 8510" transform="translate(0 47.385)">
    <g id="Group_8509" data-name="Group 8509" transform="translate(0)">
      <path id="Path_1161" data-name="Path 1161" d="M48.574,425.285v.634a9.038,9.038,0,0,0,9.028,9.028H85.769a9.038,9.038,0,0,0,9.028-9.028v-.634Z" transform="translate(-48.574 -425.285)"/>
    </g>
  </g>
  <g id="Group_8512" data-name="Group 8512" transform="translate(6.867)">
    <g id="Group_8511" data-name="Group 8511" transform="translate(0)">
      <path id="Path_1162" data-name="Path 1162" d="M110.2,0V7.147a12.4,12.4,0,0,1,2.161-.189h28.167a12.4,12.4,0,0,1,2.161.189V0Z" transform="translate(-110.204)"/>
    </g>
  </g>
  <g id="Group_8514" data-name="Group 8514" transform="translate(0 23.305)">
    <g id="Group_8513" data-name="Group 8513" transform="translate(0)">
      <path id="Path_1163" data-name="Path 1163" d="M48.574,209.163V229.9H94.8V209.163Zm24.047,17.49-3.077-1.306L71.3,221.2H67.017l3.732-8.793,3.077,1.306-1.759,4.144h4.286Z" transform="translate(-48.574 -209.163)"/>
    </g>
  </g>
  <g id="Group_8516" data-name="Group 8516" transform="translate(0 10.3)">
    <g id="Group_8515" data-name="Group 8515" transform="translate(0)">
      <path id="Path_1164" data-name="Path 1164" d="M85.769,92.448H57.6a9.038,9.038,0,0,0-9.028,9.028v.634H94.8v-.634A9.038,9.038,0,0,0,85.769,92.448Z" transform="translate(-48.574 -92.448)"/>
    </g>
  </g>
</svg>
