<svg id="rating" xmlns="http://www.w3.org/2000/svg" width="58.726" height="58.726" viewBox="0 0 58.726 58.726">
  <path id="Path_1167" data-name="Path 1167" d="M175.362,16.488l6.455,3.394-1.233-7.188L185.809,7.6l-7.22-1.048L175.362,0l-3.228,6.553L164.914,7.6l5.226,5.092-1.233,7.188Zm0,0" transform="translate(-145.998 0)"/>
  <path id="Path_1168" data-name="Path 1168" d="M340.613,108.646l-3.228-6.541-3.228,6.541-7.216,1.048,5.222,5.091-1.233,7.189,6.455-3.394,6.459,3.394-1.237-7.189,5.56-5.091Zm0,0" transform="translate(-289.442 -90.394)"/>
  <path id="Path_1169" data-name="Path 1169" d="M5.56,114.785l-1.237,7.189,6.459-3.394,6.455,3.394L16,114.785l5.222-5.091-7.216-1.048-3.228-6.541-3.228,6.541L0,109.694Zm0,0" transform="translate(0 -90.394)"/>
  <path id="Path_1170" data-name="Path 1170" d="M198.2,219.6a8.6,8.6,0,1,0-8.6,8.6A8.613,8.613,0,0,0,198.2,219.6Zm0,0" transform="translate(-160.239 -186.798)"/>
  <path id="Path_1171" data-name="Path 1171" d="M151,373.043v5.276h24.087v-5.276a12.043,12.043,0,1,0-24.087,0Zm0,0" transform="translate(-133.68 -319.593)"/>
  <path id="Path_1172" data-name="Path 1172" d="M395,429.6a8.613,8.613,0,0,0-8.6-8.6,8.484,8.484,0,0,0-2.539.427,15.269,15.269,0,0,1,.819,4.735v5.276H395Zm0,0" transform="translate(-339.834 -372.711)"/>
  <path id="Path_1173" data-name="Path 1173" d="M359.764,307.882a6.882,6.882,0,0,0-13.764,0c0,.219.044.426.065.64a15.481,15.481,0,0,1,3.944,5.593,6.809,6.809,0,0,0,2.873.649A6.889,6.889,0,0,0,359.764,307.882Zm0,0" transform="translate(-306.314 -266.475)"/>
  <path id="Path_1174" data-name="Path 1174" d="M59.7,308.522c.02-.214.065-.421.065-.64a6.882,6.882,0,1,0-6.882,6.882,6.816,6.816,0,0,0,2.873-.648A15.478,15.478,0,0,1,59.7,308.522Zm0,0" transform="translate(-40.724 -266.475)"/>
  <path id="Path_1175" data-name="Path 1175" d="M31,429.6v1.835H41.323v-5.276a15.269,15.269,0,0,1,.819-4.735A8.485,8.485,0,0,0,39.6,421a8.613,8.613,0,0,0-8.6,8.6Zm0,0" transform="translate(-27.444 -372.711)"/>
</svg>
