<svg xmlns="http://www.w3.org/2000/svg" width="133.556" height="81.864" viewBox="0 0 133.556 81.864">
  <g id="Group_83" data-name="Group 83" transform="translate(0 0)">
    <path id="Path_81" data-name="Path 81" d="M-59.528-754.175A5.334,5.334,0,0,1-64-757.052a5.176,5.176,0,0,1,.173-5.722,80.742,80.742,0,0,1,4.98-6.492,13.773,13.773,0,0,1,3.529-3.095,4.757,4.757,0,0,1,5.1.471,5.461,5.461,0,0,1,1.541,7.767c-1.993,2.765-4.132,5.429-6.271,8.085A5.546,5.546,0,0,1-59.528-754.175Z" transform="translate(75.135 818.297)" fill="#a7e42b"/>
    <g id="Group_82" data-name="Group 82" transform="translate(0)">
      <path id="Path_76" data-name="Path 76" d="M-65.292-931.4a17.434,17.434,0,0,1-.338-2.633c.044-1.852-1.157-2.953-2.319-4.053a7.967,7.967,0,0,0-12.03.946c-.9,1.142-1.791,2.3-2.864,3.672-.178-.624-.3-.945-.361-1.276-.884-4.536-5.791-6.031-9.409-5.5-3.265.477-5.114,2.567-6.6,5.261a16.881,16.881,0,0,1-2.17,2.8.993.993,0,0,1-.916.013c-1.951-1.133-3.829-2.4-5.826-3.441a14.28,14.28,0,0,0-3.066-.784c-1.55-.394-1.944-1.106-1.33-2.606,1.913-4.675,3.944-9.3,5.779-14.009,2.8-7.179,5.471-14.407,8.2-21.611.6-1.586,1.243-1.945,2.8-1.411,4.938,1.694,10.014,1.718,15.133,1.368,7.4-.506,14.337-2.742,21.176-5.479a59.7,59.7,0,0,1,9.858-3c2.129-.449,4.424-.11,6.644-.11a3.123,3.123,0,0,1,.722.275l-2.6,1.2a46.58,46.58,0,0,0-10.712,6.558,19.467,19.467,0,0,0-6.974,14.182,23.725,23.725,0,0,1-1.8,6.707,36.829,36.829,0,0,0-1.422,4.96c-.511,2.414.226,3.628,2.487,4.575a9.565,9.565,0,0,0,6.21.714,13.288,13.288,0,0,0,6.772-3.971,20.714,20.714,0,0,0,3.4-5.711,2.306,2.306,0,0,1,1.029-1.093c3.153-1.542,6.379-2.939,9.482-4.572a2.711,2.711,0,0,1,2.754-.086,149.58,149.58,0,0,1,17.412,9.862c1.891,1.218,3.656,2.628,5.51,3.905,1.275.877,2.662,1.6,3.9,2.528,2.138,1.609,4.277,3.235,6.261,5.023a29.24,29.24,0,0,1,4.17,4.564,5.594,5.594,0,0,1-.766,6.942A5.78,5.78,0,0,1-4.186-925.5q-9.977-5.76-19.929-11.565c-2.1-1.22-4.195-2.451-6.315-3.635a1.843,1.843,0,0,0-1.29-.272c-.415.144-.99.655-.98.989a1.9,1.9,0,0,0,.862,1.244c1.473.955,3,1.826,4.524,2.708q9.5,5.517,19,11.026c1.441.839,1.78,2.85.87,4.8a7,7,0,0,1-9.275,2.892c-7.359-4.123-14.69-8.295-22.032-12.446-.187-.106-.384-.2-.565-.314-.739-.475-1.458-.538-1.947.293-.5.85-.011,1.436.715,1.85,2.869,1.635,5.747,3.255,8.62,4.883q6.042,3.426,12.08,6.857c2.24,1.277,2.633,3.337,1.086,5.419a6.435,6.435,0,0,1-7.659,1.748c-5.7-3.033-11.489-5.908-17.219-8.891a3.8,3.8,0,0,1-1.429-1.359,8,8,0,0,0-8.325-3.92c-.9.153-1.316.116-1.439-.994-.573-5.186-4.788-8.223-9.931-7.265C-64.906-931.417-65.047-931.419-65.292-931.4Z" transform="translate(112.793 983.369)" fill="#a7e42b"/>
      <path id="Path_77" data-name="Path 77" d="M134.227-956.066c.2-1.593.394-3.185.583-4.778.042-.355.186-.791.04-1.057-.263-.477-.646-1.1-1.094-1.217-.7-.182-1.181.374-1.291,1.116-.276,1.845-.469,3.707-.827,5.536a17.624,17.624,0,0,1-3.057,7.405,9.393,9.393,0,0,1-5.418,3.756,10.454,10.454,0,0,1-5.574-.081c-.888-.249-1.287-.8-1.028-1.682.637-2.163,1.355-4.3,1.983-6.468a21.2,21.2,0,0,0,1.115-4.554,18.906,18.906,0,0,1,9-15.682,52.72,52.72,0,0,1,14.7-6.776,24.448,24.448,0,0,1,10.911-.076c5.827,1.055,11.614,2.327,17.421,3.486,5.534,1.106,11.036,1.424,16.46-.625,1.334-.5,2.111-.036,2.488,1.377q2.19,8.219,4.356,16.444,2.722,10.306,5.438,20.614c.373,1.41.115,1.9-1.254,2.5-1.632.71-3.226,1.511-4.87,2.189a14.912,14.912,0,0,1-8.39.771,1.451,1.451,0,0,1-.762-.337c-1.248-1.279-2.412-2.646-3.713-3.867-1.037-.973-2.229-1.779-3.353-2.66a172.745,172.745,0,0,0-31.628-19.679,3.307,3.307,0,0,0-3.648.189c-2.657,1.661-5.513,3-8.286,4.477Z" transform="translate(-67.033 981.671)" fill="#a7e42b"/>
      <path id="Path_78" data-name="Path 78" d="M9.985-766.426A15.716,15.716,0,0,1,8.5-763.067q-5.979,7.9-12.146,15.656A5.579,5.579,0,0,1-13.4-748.8a5.349,5.349,0,0,1,.76-5.32c4.121-5.344,8.287-10.653,12.421-15.988a5.774,5.774,0,0,1,6.229-1.711,5.343,5.343,0,0,1,3.691,5.27Z" transform="translate(35.135 817.661)" fill="#a7e42b"/>
      <path id="Path_79" data-name="Path 79" d="M55.417-709.126a5.262,5.262,0,0,1-4.976-2.986,5.211,5.211,0,0,1,.4-5.8q4.665-6.186,9.5-12.24a5.527,5.527,0,0,1,7.82-.712,5.514,5.514,0,0,1,.721,7.871c-3,3.847-5.955,7.727-8.928,11.6A5.4,5.4,0,0,1,55.417-709.126Z" transform="translate(-14.692 786.338)" fill="#a7e42b"/>
    </g>
    <path id="Path_80" data-name="Path 80" d="M118.793-674.126a5.355,5.355,0,0,1-4.888-3.114,5.219,5.219,0,0,1,.6-5.862q3.184-4.073,6.349-8.161a5.5,5.5,0,0,1,7.5-1.25A5.491,5.491,0,0,1,130-685c-1.483,2.239-3.234,4.3-4.873,6.437-.612.8-1.223,1.6-1.863,2.371A5.649,5.649,0,0,1,118.793-674.126Z" transform="translate(-64.517 755.99)" fill="#a7e42b"/>
    <path id="Path_82" data-name="Path 82" d="M191.442-667.42c2.745,1.4,5.166,2.629,7.584,3.865,1.945.993,3.881,2.005,5.833,2.986,1.005.506,1.723,1.148,1.554,2.41a2.736,2.736,0,0,1-2.122,2.3,11.8,11.8,0,0,1-6.283-.139c-3.4-.851-6.732-1.965-10.09-2.978a3.039,3.039,0,0,1-.582-.387C189.1-661.8,191.378-663.93,191.442-667.42Z" transform="translate(-122.605 735.562)" fill="#a7e42b"/>
  </g>
</svg>
