<svg xmlns="http://www.w3.org/2000/svg" width="79.385" height="86.912" viewBox="0 0 79.385 86.912">
  <g id="Group_79" data-name="Group 79" transform="translate(0)">
    <path id="Path_87" data-name="Path 87" d="M2666.126,80.9a70.584,70.584,0,0,0,11.641,36.986,69.606,69.606,0,0,0,17.746,18.394,1.616,1.616,0,0,0,2.209,0,71.359,71.359,0,0,0,19.827-21.736,77.5,77.5,0,0,0,6.182-13.759,4.858,4.858,0,0,1,1.017-1.855c3.343-3.5,6.665-7.019,10-10.523.229-.242.45-.7.835-.525.447.206.244.7.194,1.075a79.585,79.585,0,0,1-9.6,29.087,78.638,78.638,0,0,1-26.417,27.881c-3.68,2.339-2.416,2.425-6.368-.1a79.272,79.272,0,0,1-36.162-73.41c.078-.9.443-1.208,1.342-1.229a80.928,80.928,0,0,0,27.84-5.645,93.42,93.42,0,0,0,9.329-4.488,1.75,1.75,0,0,1,1.879.019,78.114,78.114,0,0,0,22.779,8.457c.441.091,1.066-.011,1.228.532.141.478-.4.726-.688,1.029-1.792,1.909-3.636,3.771-5.386,5.717a1.872,1.872,0,0,1-2.207.572,88.491,88.491,0,0,1-15.571-5.858,2.453,2.453,0,0,0-2.449.017A85.441,85.441,0,0,1,2667.6,79.66C2666.156,79.825,2666.108,79.907,2666.126,80.9Z" transform="translate(-2656.948 -60.787)" fill="#a7e42b"/>
    <path id="Path_88" data-name="Path 88" d="M2735.217,122.047a2.052,2.052,0,0,1,1.514.9q5.836,6.185,11.672,12.374c.515.548,1.076,1.057,1.59,1.608a1.124,1.124,0,0,0,1.842.059c1.037-1.039,2.078-2.073,3.086-3.138q10.265-10.842,20.512-21.7c2.1-2.22,4.159-4.471,6.268-6.679,1.085-1.138,1.8-1.143,2.942-.079q2.521,2.354,5.006,4.751c1.056,1.017,1.075,1.669.08,2.732q-3.947,4.208-7.917,8.4-7.327,7.724-14.669,15.439-7.234,7.648-14.432,15.329c-1.506,1.6-2.136,1.523-3.617-.139-1.8-2.011-3.668-3.953-5.527-5.909q-6.955-7.335-13.922-14.66c-2.236-2.366-2.229-2.394.127-4.689,1.393-1.355,2.826-2.667,4.236-4A1.619,1.619,0,0,1,2735.217,122.047Z" transform="translate(-2711.074 -94.176)" fill="#a7e42b"/>
  </g>
</svg>
