<svg xmlns="http://www.w3.org/2000/svg" width="21.938" height="25.197" viewBox="0 0 21.938 25.197">
  <path id="Path_1187" data-name="Path 1187" d="M1101.85,494.016v-.3a9.224,9.224,0,0,0-18.447-.191,2.108,2.108,0,0,0-1.965,2.1v5.768a2.111,2.111,0,0,0,4.222,0v-5.768a2.1,2.1,0,0,0-1.114-1.849v-.056a8.076,8.076,0,1,1,16.152,0v.293a2.109,2.109,0,0,0-1.544,2.024V501.8a2.107,2.107,0,0,0,1.535,2.02v1.015a2.984,2.984,0,0,1-2.98,2.98h-.355a1.289,1.289,0,0,0-1.15-.715h-3.06a1.291,1.291,0,1,0,0,2.582h3.06a1.289,1.289,0,0,0,1.15-.715h.355a4.137,4.137,0,0,0,4.132-4.132v-1.015a2.107,2.107,0,0,0,1.535-2.02v-5.768A2.107,2.107,0,0,0,1101.85,494.016Zm-17.116,7.374a1.185,1.185,0,1,1-2.37,0v-5.768a1.185,1.185,0,1,1,2.37,0Zm11.469,7.6h-3.06a.592.592,0,0,1,0-1.183h3.06a.592.592,0,0,1,0,1.183Zm6.247-7.184a1.185,1.185,0,1,1-2.37,0v-5.768a1.185,1.185,0,1,1,2.37,0Z" transform="translate(-1081.438 -484.488)" fill="#fff"/>
</svg>
