<svg xmlns="http://www.w3.org/2000/svg" width="32.977" height="28.056" viewBox="0 0 32.977 28.056">
  <g id="mail-open-outline" transform="translate(-2.25 -4.682)">
    <path id="Path_1224" data-name="Path 1224" d="M32.445,12.381,19.539,6.012a1.815,1.815,0,0,0-1.606,0l-12.9,6.369a2.955,2.955,0,0,0-1.654,2.643V28.658a2.974,2.974,0,0,0,2.993,2.955H31.11A2.973,2.973,0,0,0,34.1,28.658V15.023a2.955,2.955,0,0,0-1.658-2.643Z" fill="none" stroke="#000" stroke-linecap="round" stroke-linejoin="round" stroke-width="2.25"/>
    <path id="Path_1225" data-name="Path 1225" d="M28.957,26.249l-9.546-7.425a1.773,1.773,0,0,0-2.176,0L7.687,26.249" transform="translate(0.217 0.636)" fill="none" stroke="#000" stroke-linecap="round" stroke-linejoin="round" stroke-width="2.25"/>
    <path id="Path_1226" data-name="Path 1226" d="M21.75,21.107,31.795,13.5" transform="translate(0.926 0.387)" fill="none" stroke="#000" stroke-linecap="round" stroke-linejoin="round" stroke-width="2.25"/>
    <path id="Path_1227" data-name="Path 1227" d="M4.312,13.5l10.265,7.755" transform="translate(0.047 0.387)" fill="none" stroke="#000" stroke-linecap="round" stroke-linejoin="round" stroke-width="2.25"/>
  </g>
</svg>
