<svg xmlns="http://www.w3.org/2000/svg" width="23.486" height="23.486" viewBox="0 0 23.486 23.486">
  <g id="arrow-down-left" transform="translate(23.486 11.743) rotate(135)">
    <path id="Path_1217" data-name="Path 1217" d="M.83,9.963a.83.83,0,0,0,.83-.83V1.66H9.132a.83.83,0,0,0,0-1.66H.83A.83.83,0,0,0,0,.83v8.3A.83.83,0,0,0,.83,9.963Z" transform="translate(0.001 0.001)" fill-rule="evenodd"/>
    <path id="Path_1218" data-name="Path 1218" d="M16.363,16.363a.83.83,0,0,0,0-1.176L1.419.243A.831.831,0,0,0,.243,1.419L15.187,16.363a.83.83,0,0,0,1.176,0Z" transform="translate(0 0)" fill-rule="evenodd"/>
  </g>
</svg>
