<svg xmlns="http://www.w3.org/2000/svg" width="23.486" height="23.486" viewBox="0 0 23.486 23.486">
  <g id="arrow-down-left" transform="translate(11.743) rotate(45)">
    <path id="Path_1217" data-name="Path 1217" d="M.83,0a.83.83,0,0,1,.83.83V8.3H9.132a.83.83,0,0,1,0,1.66H.83A.83.83,0,0,1,0,9.132V.83A.83.83,0,0,1,.83,0Z" transform="translate(0.001 6.643)" fill-rule="evenodd"/>
    <path id="Path_1218" data-name="Path 1218" d="M16.363.244a.83.83,0,0,1,0,1.176L1.419,16.363A.831.831,0,0,1,.243,15.188L15.187.244a.83.83,0,0,1,1.176,0Z" transform="translate(0 0)" fill-rule="evenodd"/>
  </g>
</svg>
