<svg xmlns="http://www.w3.org/2000/svg" width="21.101" height="25.197" viewBox="0 0 21.101 25.197">
  <path id="Path_1186" data-name="Path 1186" d="M1169.166,510.3a.5.5,0,0,1-.192-.038,16.58,16.58,0,0,1-10.358-15.411v-5.069a.516.516,0,0,1,.316-.473l10.042-4.167a.506.506,0,0,1,.195-.039.523.523,0,0,1,.2.039l10.036,4.168a.512.512,0,0,1,.315.472v5.069a16.577,16.577,0,0,1-10.356,15.411A.507.507,0,0,1,1169.166,510.3Zm0-24.085a.5.5,0,0,0-.2.039L1159.96,490a.511.511,0,0,0-.317.474v4.385a15.632,15.632,0,0,0,9.317,14.295.522.522,0,0,0,.414,0,15.631,15.631,0,0,0,9.32-14.295v-4.385a.512.512,0,0,0-.316-.474l-9.014-3.739A.509.509,0,0,0,1169.167,486.22Zm-1.136,14.049a.508.508,0,0,1-.362-.15l-2.864-2.863a.523.523,0,0,1-.065-.745.514.514,0,0,1,.725-.044l2.206,2.2a.513.513,0,0,0,.725,0l4.4-4.4a.54.54,0,0,1,.406-.195.514.514,0,0,1,.383.853c-.009.007-5.2,5.2-5.2,5.2A.51.51,0,0,1,1168.031,500.269Z" transform="translate(-1158.616 -485.108)" fill="#fff"/>
</svg>
