<svg xmlns="http://www.w3.org/2000/svg" width="26.331" height="26.331" viewBox="0 0 26.331 26.331">
  <path id="Path_5" data-name="Path 5" d="M-1325.948,474.157a13.082,13.082,0,0,1-9.3-3.893,13.079,13.079,0,0,1-3.82-9.325,13.2,13.2,0,0,1,13.166-13.113h.067a13.077,13.077,0,0,1,9.29,3.905,13.08,13.08,0,0,1,3.808,9.329,13.2,13.2,0,0,1-13.167,13.1Zm.089-1.135a12.12,12.12,0,0,0,7.393-2.532,1.311,1.311,0,0,0,.517-1.621,5.608,5.608,0,0,0-2.768-3.407,10.507,10.507,0,0,0-5.191-1.372,10.55,10.55,0,0,0-4.788,1.154,5.687,5.687,0,0,0-3.175,3.706,1.27,1.27,0,0,0,.543,1.54,11.98,11.98,0,0,0,7.359,2.532h.111Zm-.032-24.085a12.233,12.233,0,0,0-1.542.1,12.085,12.085,0,0,0-10.5,12.014,10.983,10.983,0,0,0,.7,4.028,11.747,11.747,0,0,0,1.559,2.959.576.576,0,0,0,.48.352.488.488,0,0,0,.472-.422c.065-.145.117-.258.168-.371.063-.139.126-.278.2-.409a8.077,8.077,0,0,1,4.43-3.508c.29-.105.481-.175.526-.406s-.109-.369-.3-.547a5.708,5.708,0,0,1-1.985-5.278,5.839,5.839,0,0,1,5.754-5.022,5.912,5.912,0,0,1,.809.056l.074.011a5.886,5.886,0,0,1,4.924,6.721,5.824,5.824,0,0,1-2.006,3.52.582.582,0,0,0-.267.535c.053.26.323.345.438.381a7.08,7.08,0,0,1,.748.3,7.561,7.561,0,0,1,4.143,4.032c.1.34.292.407.44.407a.611.611,0,0,0,.493-.339,11.822,11.822,0,0,0,2.168-8.61A12.056,12.056,0,0,0-1325.89,448.937Zm-.107,4.634a4.752,4.752,0,0,0-4.645,4.689,4.758,4.758,0,0,0,4.749,4.739,4.748,4.748,0,0,0,4.738-4.743,4.745,4.745,0,0,0-4.729-4.687Z" transform="translate(1339.064 -447.826)" fill="#fff"/>
</svg>
